<?xml version="1.0" encoding="iso-8859-1"?>
<!-- Uploaded to: SVG Repo, www.svgrepo.com, Generator: SVG Repo Mixer Tools -->
<svg fill="#EF4444" height="800px" width="800px" version="1.1" id="Layer_1" xmlns="http://www.w3.org/2000/svg" xmlns:xlink="http://www.w3.org/1999/xlink" 
	 viewBox="0 0 512 512" xml:space="preserve">
<g>
	<g>
		<path d="M256,196.676c-37.426,0-67.875,30.448-67.875,67.875s30.448,67.875,67.875,67.875s67.875-30.448,67.875-67.875
			S293.426,196.676,256,196.676z M256,316.393c-28.585,0-51.841-23.256-51.841-51.841S227.415,212.71,256,212.71
			s51.841,23.256,51.841,51.841S284.585,316.393,256,316.393z"/>
	</g>
</g>
<g>
	<g>
		<path d="M289.172,258.76c-0.757-4.363-4.904-7.284-9.271-6.527c-4.362,0.758-7.283,4.908-6.526,9.271
			c0.173,0.997,0.261,2.022,0.261,3.047c0,9.725-7.912,17.637-17.637,17.637c-9.725,0-17.637-7.912-17.637-17.637
			s7.912-17.637,17.637-17.637c0.99,0,1.982,0.082,2.951,0.245c4.371,0.734,8.499-2.217,9.23-6.583
			c0.731-4.366-2.216-8.499-6.583-9.23c-1.841-0.309-3.724-0.465-5.598-0.465c-18.566,0-33.67,15.104-33.67,33.67
			s15.105,33.67,33.67,33.67s33.67-15.105,33.67-33.67C289.67,262.609,289.502,260.66,289.172,258.76z"/>
	</g>
</g>
<g>
	<g>
		<path d="M409.921,230.881h-17.637v-4.284c0-11.547-7.824-21.568-19.027-24.369l-15.177-3.795v-19.928h9.086
			c9.136,0,16.568-7.432,16.568-16.568v-17.102c0-9.136-7.432-16.568-16.568-16.568h-9.4c-3.439-44.055-34.969-80.347-76.646-90.932
			V16.568C281.119,7.432,273.687,0,264.551,0h-17.102c-9.136,0-16.568,7.432-16.568,16.568v20.768
			c-41.677,10.585-73.207,46.876-76.646,90.932h-9.4c-9.136,0-16.568,7.432-16.568,16.568v17.102
			c0,9.136,7.432,16.568,16.568,16.568h9.086v19.928l-15.177,3.795c-11.203,2.8-19.027,12.821-19.027,24.369v4.284h-17.637
			c-9.136,0-16.568,7.432-16.568,16.568v34.205c0,9.136,7.432,16.568,16.568,16.568h17.637v4.284
			c0,11.547,7.824,21.568,19.027,24.369l15.177,3.795v131.093h-34.739c-9.136,0-16.568,7.432-16.568,16.568v17.102
			c0,9.136,7.432,16.568,16.568,16.568h273.637c9.136,0,16.568-7.432,16.568-16.568V478.33c0-9.136-7.432-16.568-16.568-16.568
			h-34.739V330.669l15.177-3.795c11.203-2.801,19.027-12.821,19.027-24.369v-4.284h17.637c9.136,0,16.568-7.432,16.568-16.568
			v-34.205C426.489,238.313,419.057,230.881,409.921,230.881z M119.716,282.188h-17.637c-0.295,0-0.534-0.239-0.534-0.534v-34.205
			c0-0.295,0.239-0.534,0.534-0.534h17.637V282.188z M246.914,16.568c0-0.295,0.239-0.534,0.534-0.534h17.102
			c0.295,0,0.534,0.239,0.534,0.534v18.046c-2.994-0.265-6.023-0.409-9.086-0.409c-3.062,0-6.092,0.143-9.086,0.409V16.568z
			 M142.631,311.32c-4.052-1.013-6.882-4.638-6.882-8.814v-75.909c0-4.176,2.829-7.801,6.882-8.814l11.29-2.822v99.182
			L142.631,311.32z M392.818,477.795c0.295,0,0.534,0.239,0.534,0.534v17.102c0,0.295-0.239,0.534-0.534,0.534H119.182
			c-0.295,0-0.534-0.239-0.534-0.534V478.33c0-0.295,0.239-0.534,0.534-0.534h162.472c4.427,0,8.017-3.589,8.017-8.017
			c0-4.427-3.589-8.017-8.017-8.017H169.954V178.505h172.092v283.257h-26.19c-4.427,0-8.017,3.589-8.017,8.017
			c0,4.427,3.589,8.017,8.017,8.017H392.818z M144.835,162.472c-0.295,0-0.534-0.239-0.534-0.534v-17.102
			c0-0.295,0.239-0.534,0.534-0.534H281.65c4.427,0,8.017-3.589,8.017-8.017s-3.589-8.017-8.017-8.017H170.341
			c4.059-43.7,40.918-78.029,85.659-78.029s81.602,34.33,85.659,78.029H315.86c-4.427,0-8.017,3.589-8.017,8.017
			s3.589,8.017,8.017,8.017h51.305c0.295,0,0.534,0.239,0.534,0.534v17.102c0,0.295-0.239,0.534-0.534,0.534H144.835z
			 M376.251,302.505c0,4.176-2.829,7.801-6.882,8.814l-11.29,2.822V214.96l11.29,2.822c4.052,1.013,6.882,4.638,6.882,8.814V302.505
			z M410.455,281.653c0,0.295-0.239,0.534-0.534,0.534h-17.637v-35.273h17.637c0.295,0,0.534,0.239,0.534,0.534V281.653z"/>
	</g>
</g>
</svg>